<?xml version="1.0" standalone="no"?>
<!DOCTYPE svg PUBLIC "-//W3C//DTD SVG 20010904//EN"
 "http://www.w3.org/TR/2001/REC-SVG-20010904/DTD/svg10.dtd">
<svg version="1.0" xmlns="http://www.w3.org/2000/svg"
 width="512.000000pt" height="512.000000pt" viewBox="0 0 512.000000 512.000000"
 preserveAspectRatio="xMidYMid meet">

<g transform="translate(0.000000,512.000000) scale(0.100000,-0.100000)"
fill="#000000" stroke="none">
<path d="M4654 4922 c-54 -19 -131 -71 -179 -122 -25 -26 -27 -33 -15 -40 8
-5 21 -10 29 -10 29 0 133 -65 172 -107 22 -24 55 -74 72 -110 26 -57 31 -81
35 -170 8 -175 -41 -346 -173 -610 -261 -520 -758 -1157 -1414 -1814 -875
-874 -1738 -1478 -2259 -1579 -36 -8 -105 -11 -165 -8 -89 4 -113 9 -170 35
-36 17 -86 50 -110 72 -44 41 -99 131 -111 184 -3 15 -10 27 -15 27 -18 0
-112 -116 -139 -170 -22 -45 -27 -69 -27 -130 0 -98 15 -131 89 -191 222 -181
541 -222 890 -112 692 217 1802 1082 2737 2133 588 662 1011 1306 1152 1756
65 207 79 424 38 584 -40 155 -148 337 -224 377 -48 24 -152 27 -213 5z"/>
</g>
</svg>
