<?xml version="1.0" encoding="UTF-8"?>
<svg version="1.1" xmlns="http://www.w3.org/2000/svg" width="512" height="512">
<path d="M0 0 C2.41864809 1.0498282 3.51741836 2.38674276 5.17182922 4.43205261 C7.47030901 7.18630771 9.79092802 9.80213997 12.35932922 12.30705261 C15.45289565 15.34537679 18.28038429 18.55470581 21.10932922 21.83830261 C22.79731208 23.73728333 24.54702656 25.5271125 26.35932922 27.30705261 C29.45289565 30.34537679 32.28038429 33.55470581 35.10932922 36.83830261 C36.79731208 38.73728333 38.54702656 40.5271125 40.35932922 42.30705261 C43.45289565 45.34537679 46.28038429 48.55470581 49.10932922 51.83830261 C50.79731208 53.73728333 52.54702656 55.5271125 54.35932922 57.30705261 C57.45289565 60.34537679 60.28038429 63.55470581 63.10932922 66.83830261 C64.79731208 68.73728333 66.54702656 70.5271125 68.35932922 72.30705261 C71.45289565 75.34537679 74.28038429 78.55470581 77.10932922 81.83830261 C78.79731208 83.73728333 80.54702656 85.5271125 82.35932922 87.30705261 C84.79322654 89.69758428 87.07288481 92.15751524 89.29682922 94.74455261 C91.71550701 97.55281608 94.21832605 100.20675854 96.85932922 102.80705261 C100.1313505 106.02863811 103.15248977 109.39297407 106.14448547 112.87345886 C108.35980302 115.37136817 110.72831093 117.6873025 113.10932922 120.02580261 C115.56567771 122.52601447 117.8224229 125.18385777 120.10932922 127.83830261 C121.79731208 129.73728333 123.54702656 131.5271125 125.35932922 133.30705261 C128.3875461 136.28131463 131.15638859 139.4176938 133.92182922 142.63517761 C135.90491928 144.8581576 137.96701379 146.96348436 140.08198547 149.06095886 C141.14751648 150.11972229 141.14751648 150.11972229 142.23457336 151.19987488 C142.7707428 151.73024353 143.30691223 152.26061218 143.85932922 152.80705261 C144.30212219 152.35902283 144.74491516 151.91099304 145.2011261 151.4493866 C147.25109605 149.37835165 149.30518355 147.31144564 151.35932922 145.24455261 C152.05542297 144.54007996 152.75151672 143.8356073 153.46870422 143.10978699 C157.51022812 139.04955234 161.64288286 135.17318482 165.98384094 131.43522644 C168.78145787 129.00652203 171.47028087 126.46638054 174.17182922 123.93205261 C179.04518472 119.39356738 184.062369 115.11356464 189.25776672 110.94377136 C191.80919651 108.84822768 194.24259696 106.66742107 196.67182922 104.43205261 C201.04633748 100.45021675 205.60461997 96.78963178 210.27583313 93.1681366 C214.09210591 90.2068841 217.85084204 87.18820656 221.57783508 84.11540222 C243.63714448 65.95647412 267.20480796 49.24778241 291.85932922 34.80705261 C293.08401917 34.08074646 293.08401917 34.08074646 294.33345032 33.33976746 C328.9596551 12.83784236 373.10381971 -9.15005384 414.60932922 1.30705261 C434.84690874 7.46066352 451.58499721 19.61576324 462.1061554 38.19206238 C474.42146933 61.36038371 473.6000336 89.71814742 466.11177063 114.25675964 C455.55550182 147.74002601 437.57830056 177.99394381 417.85932922 206.80705261 C417.3514386 207.54955261 416.84354797 208.29205261 416.32026672 209.05705261 C404.43657272 226.34242571 391.59200387 242.93511764 378.25093079 259.11564636 C376.25314804 261.54382862 374.27751499 263.98991676 372.29682922 266.43205261 C364.47572695 275.97207846 356.4133119 285.28730846 348.07417297 294.37736511 C346.21926105 296.41220676 344.40504124 298.47026508 342.60932922 300.55705261 C339.11414574 304.57651361 335.48987531 308.4727538 331.85932922 312.36955261 C330.98679504 313.30782898 330.98679504 313.30782898 330.09663391 314.26506042 C326.10445756 318.53549977 322.01770394 322.69844568 317.85932922 326.80705261 C327.711784 336.85865095 327.711784 336.85865095 338.13667297 346.30314636 C340.57634665 348.4330202 342.80989758 350.7476313 345.07807922 353.05705261 C346.94322597 354.88947748 348.87860668 356.60058396 350.85932922 358.30705261 C354.08889289 361.08944593 357.09255575 364.0172469 360.07807922 367.05705261 C361.94322597 368.88947748 363.87860668 370.60058396 365.85932922 372.30705261 C368.46580531 374.55263201 370.94867443 376.85256773 373.35932922 379.30705261 C375.74986089 381.74094993 378.20979185 384.0206082 380.79682922 386.24455261 C384.32567685 389.28384913 387.58937949 392.51722109 390.85542297 395.83439636 C393.44179074 398.38043091 396.17468202 400.72726818 398.92573547 403.09220886 C401.42364478 405.30752641 403.73957911 407.67603432 406.07807922 410.05705261 C407.94322597 411.88947748 409.87860668 413.60058396 411.85932922 415.30705261 C415.08889289 418.08944593 418.09255575 421.0172469 421.07807922 424.05705261 C422.94322597 425.88947748 424.87860668 427.60058396 426.85932922 429.30705261 C430.08889289 432.08944593 433.09255575 435.0172469 436.07807922 438.05705261 C437.94322597 439.88947748 439.87860668 441.60058396 441.85932922 443.30705261 C445.08889289 446.08944593 448.09255575 449.0172469 451.07807922 452.05705261 C453.57180437 454.50702819 456.22172726 456.75859111 458.87104797 459.03752136 C461.47361676 461.35375645 463.8999637 463.81835253 466.31636047 466.32658386 C467.99640294 468.02540766 467.99640294 468.02540766 470.85932922 469.80705261 C470.27927238 473.45272973 468.88918841 475.16439328 466.32099915 477.76530457 C465.57319687 478.52901871 464.82539459 479.29273285 464.05493164 480.07958984 C463.24143753 480.89328537 462.42794342 481.7069809 461.58979797 482.54533386 C460.75724991 483.38549545 459.92470184 484.22565704 459.06692505 485.09127808 C457.30458967 486.86441944 455.5382584 488.63359685 453.76826477 490.39909363 C451.05388669 493.11249767 448.36152808 495.84651662 445.6698761 498.58244324 C443.95698543 500.30053919 442.24283462 502.01737994 440.52729797 503.73283386 C439.71987656 504.55665054 438.91245514 505.38046722 438.08056641 506.22924805 C437.32330765 506.97720139 436.56604889 507.72515472 435.7858429 508.49577332 C435.12267563 509.16099503 434.45950836 509.82621674 433.77624512 510.51159668 C431.85932922 511.80705261 431.85932922 511.80705261 429.71865845 511.61410522 C427.30001036 510.56427702 426.20124009 509.22736247 424.54682922 507.18205261 C422.24834944 504.42779752 419.92773043 501.81196525 417.35932922 499.30705261 C414.26576279 496.26872844 411.43827416 493.05939941 408.60932922 489.77580261 C406.92134637 487.8768219 405.17163189 486.08699273 403.35932922 484.30705261 C400.26576279 481.26872844 397.43827416 478.05939941 394.60932922 474.77580261 C392.92134637 472.8768219 391.17163189 471.08699273 389.35932922 469.30705261 C386.26576279 466.26872844 383.43827416 463.05939941 380.60932922 459.77580261 C378.92134637 457.8768219 377.17163189 456.08699273 375.35932922 454.30705261 C372.26576279 451.26872844 369.43827416 448.05939941 366.60932922 444.77580261 C364.92134637 442.8768219 363.17163189 441.08699273 361.35932922 439.30705261 C358.9254319 436.91652095 356.64577363 434.45658999 354.42182922 431.86955261 C352.00315144 429.06128914 349.5003324 426.40734668 346.85932922 423.80705261 C343.58730794 420.58546711 340.56616867 417.22113116 337.57417297 413.74064636 C335.35885543 411.24273705 332.99034752 408.92680272 330.60932922 406.58830261 C328.15298074 404.08809076 325.89623555 401.43024745 323.60932922 398.77580261 C321.92134637 396.8768219 320.17163189 395.08699273 318.35932922 393.30705261 C315.26576279 390.26872844 312.43827416 387.05939941 309.60932922 383.77580261 C307.92134637 381.8768219 306.17163189 380.08699273 304.35932922 378.30705261 C301.33111234 375.3327906 298.56226986 372.19641142 295.79682922 368.97892761 C293.81373916 366.75594763 291.75164466 364.65062086 289.63667297 362.55314636 C288.92631897 361.84730408 288.21596497 361.14146179 287.48408508 360.41423035 C286.94791565 359.88386169 286.41174622 359.35349304 285.85932922 358.80705261 C285.19513977 359.47909729 285.19513977 359.47909729 284.51753235 360.16471863 C282.46756239 362.23575357 280.4134749 364.30265958 278.35932922 366.36955261 C277.66323547 367.07402527 276.96714172 367.77849792 276.24995422 368.50431824 C272.20843033 372.56455289 268.07577559 376.44092041 263.7348175 380.17887878 C260.93720058 382.6075832 258.24837757 385.14772469 255.54682922 387.68205261 C250.67347373 392.22053785 245.65628945 396.50054059 240.46089172 400.67033386 C237.90946194 402.76587755 235.47606149 404.94668416 233.04682922 407.18205261 C228.67232096 411.16388848 224.11403848 414.82447344 219.44282532 418.44596863 C215.62655254 421.40722112 211.86781641 424.42589866 208.14082336 427.498703 C186.08151396 445.6576311 162.51385049 462.36632282 137.85932922 476.80705261 C137.04286926 477.29125671 136.2264093 477.77546082 135.38520813 478.27433777 C100.75900334 498.77626286 56.61483874 520.76415907 15.10932922 510.30705261 C-5.1282503 504.15344171 -21.86633876 491.99834198 -32.38749695 473.42204285 C-44.70281088 450.25372152 -43.88137515 421.89595781 -36.39311218 397.35734558 C-25.83684338 363.87407921 -7.85964211 333.62016142 11.85932922 304.80705261 C12.36721985 304.06455261 12.87511047 303.32205261 13.39839172 302.55705261 C25.28208573 285.27167951 38.12665457 268.67898758 51.46772766 252.49845886 C53.46551041 250.0702766 55.44114346 247.62418847 57.42182922 245.18205261 C65.2429315 235.64202676 73.30534655 226.32679676 81.64448547 217.23674011 C83.4993974 215.20189846 85.31361721 213.14384014 87.10932922 211.05705261 C90.6045127 207.03759161 94.22878313 203.14135143 97.85932922 199.24455261 C98.44101868 198.61903503 99.02270813 197.99351746 99.62202454 197.3490448 C103.61420088 193.07860546 107.7009545 188.91565955 111.85932922 184.80705261 C102.00687445 174.75545428 102.00687445 174.75545428 91.58198547 165.31095886 C89.1423118 163.18108502 86.90876087 160.86647393 84.64057922 158.55705261 C82.77543248 156.72462774 80.84005177 155.01352127 78.85932922 153.30705261 C76.25285314 151.06147322 73.76998402 148.76153749 71.35932922 146.30705261 C68.96879756 143.87315529 66.5088666 141.59349702 63.92182922 139.36955261 C60.39298159 136.3302561 57.12927895 133.09688414 53.86323547 129.77970886 C51.27686771 127.23367432 48.54397642 124.88683705 45.79292297 122.52189636 C43.29501367 120.30657881 40.97907934 117.93807091 38.64057922 115.55705261 C36.77543248 113.72462774 34.84005177 112.01352127 32.85932922 110.30705261 C29.62976555 107.5246593 26.62610269 104.59685833 23.64057922 101.55705261 C21.77543248 99.72462774 19.84005177 98.01352127 17.85932922 96.30705261 C14.62976555 93.5246593 11.62610269 90.59685833 8.64057922 87.55705261 C6.77543248 85.72462774 4.84005177 84.01352127 2.85932922 82.30705261 C-0.37023445 79.5246593 -3.37389731 76.59685833 -6.35942078 73.55705261 C-8.22456752 71.72462774 -10.15994823 70.01352127 -12.14067078 68.30705261 C-15.37023445 65.5246593 -18.37389731 62.59685833 -21.35942078 59.55705261 C-23.85314592 57.10707703 -26.50306881 54.85551411 -29.15238953 52.57658386 C-31.75495832 50.26034877 -34.18130525 47.79575269 -36.59770203 45.28752136 C-38.2777445 43.58869756 -38.2777445 43.58869756 -41.14067078 41.80705261 C-40.56061393 38.16137549 -39.17052997 36.44971195 -36.6023407 33.84880066 C-35.85453842 33.08508652 -35.10673615 32.32137238 -34.33627319 31.53451538 C-33.52277908 30.72081985 -32.70928497 29.90712433 -31.87113953 29.06877136 C-31.03859146 28.22860977 -30.2060434 27.38844818 -29.3482666 26.52282715 C-27.58593122 24.74968578 -25.81959995 22.98050837 -24.04960632 21.2150116 C-21.33522825 18.50160755 -18.64286963 15.76758861 -15.95121765 13.03166199 C-14.23832698 11.31356603 -12.52417617 9.59672529 -10.80863953 7.88127136 C-10.00121811 7.05745468 -9.19379669 6.233638 -8.36190796 5.38485718 C-7.6046492 4.63690384 -6.84739044 3.8889505 -6.06718445 3.11833191 C-5.07243355 2.12049934 -5.07243355 2.12049934 -4.05758667 1.10250854 C-2.14067078 -0.19294739 -2.14067078 -0.19294739 0 0 Z " fill="#FD5F6E" transform="translate(41.14067077636719,0.1929473876953125)"/>
<path d="M0 0 C12.14699405 9.94753834 18.41343636 28.01695786 21 43 C24.31717287 96.15712332 -2.9080622 142.49123243 -32 185 C-32.50789063 185.7425 -33.01578125 186.485 -33.5390625 187.25 C-45.42275651 204.5353731 -58.26732535 221.12806503 -71.60839844 237.30859375 C-73.60618119 239.73677601 -75.58181424 242.18286415 -77.5625 244.625 C-85.38360227 254.16502585 -93.44601733 263.48025585 -101.78515625 272.5703125 C-103.64006817 274.60515415 -105.45428798 276.66321247 -107.25 278.75 C-110.74518348 282.769461 -114.36945391 286.66570118 -118 290.5625 C-118.87253418 291.50077637 -118.87253418 291.50077637 -119.76269531 292.45800781 C-123.75487166 296.72844715 -127.84162528 300.89139306 -132 305 C-122.14754522 315.05159834 -122.14754522 315.05159834 -111.72265625 324.49609375 C-109.28298258 326.62596759 -107.04943165 328.94057869 -104.78125 331.25 C-102.91610326 333.08242487 -100.98072254 334.79353135 -99 336.5 C-95.77043633 339.28239332 -92.76677347 342.21019429 -89.78125 345.25 C-87.91610326 347.08242487 -85.98072254 348.79353135 -84 350.5 C-81.39352391 352.7455794 -78.91065479 355.04551512 -76.5 357.5 C-74.10946833 359.93389732 -71.64953738 362.21355559 -69.0625 364.4375 C-65.53365237 367.47679651 -62.26994973 370.71016847 -59.00390625 374.02734375 C-56.41753849 376.57337829 -53.6846472 378.92021557 -50.93359375 381.28515625 C-48.43568444 383.5004738 -46.11975011 385.8689817 -43.78125 388.25 C-41.91610326 390.08242487 -39.98072254 391.79353135 -38 393.5 C-34.77043633 396.28239332 -31.76677347 399.21019429 -28.78125 402.25 C-26.91610326 404.08242487 -24.98072254 405.79353135 -23 407.5 C-19.77043633 410.28239332 -16.76677347 413.21019429 -13.78125 416.25 C-11.91610326 418.08242487 -9.98072254 419.79353135 -8 421.5 C-4.77043633 424.28239332 -1.76677347 427.21019429 1.21875 430.25 C3.71247514 432.69997558 6.36239803 434.9515385 9.01171875 437.23046875 C11.61428754 439.54670384 14.04063448 442.01129992 16.45703125 444.51953125 C18.13707372 446.21835505 18.13707372 446.21835505 21 448 C20.41994315 451.64567712 19.02985919 453.35734067 16.46166992 455.95825195 C15.71386765 456.72196609 14.96606537 457.48568024 14.19560242 458.27253723 C13.38210831 459.08623276 12.5686142 459.89992828 11.73046875 460.73828125 C10.89792068 461.57844284 10.06537262 462.41860443 9.20759583 463.28422546 C7.44526045 465.05736683 5.67892917 466.82654424 3.90893555 468.59204102 C1.19455747 471.30544506 -1.49780114 474.039464 -4.18945312 476.77539062 C-5.90234379 478.49348658 -7.6164946 480.21032733 -9.33203125 481.92578125 C-10.13945267 482.74959793 -10.94687408 483.57341461 -11.77876282 484.42219543 C-12.53602158 485.17014877 -13.29328033 485.91810211 -14.07348633 486.6887207 C-14.73665359 487.35394241 -15.39982086 488.01916412 -16.08308411 488.70454407 C-18 490 -18 490 -20.14067078 489.80705261 C-22.55931886 488.75722441 -23.65808913 487.42030985 -25.3125 485.375 C-27.61097978 482.62074491 -29.93159879 480.00491264 -32.5 477.5 C-35.59356643 474.46167583 -38.42105507 471.2523468 -41.25 467.96875 C-42.93798286 466.06976929 -44.68769734 464.27994012 -46.5 462.5 C-49.59356643 459.46167583 -52.42105507 456.2523468 -55.25 452.96875 C-56.93798286 451.06976929 -58.68769734 449.27994012 -60.5 447.5 C-63.59356643 444.46167583 -66.42105507 441.2523468 -69.25 437.96875 C-70.93798286 436.06976929 -72.68769734 434.27994012 -74.5 432.5 C-77.59356643 429.46167583 -80.42105507 426.2523468 -83.25 422.96875 C-84.93798286 421.06976929 -86.68769734 419.27994012 -88.5 417.5 C-90.93389732 415.10946833 -93.21355559 412.64953738 -95.4375 410.0625 C-97.85617779 407.25423653 -100.35899683 404.60029407 -103 402 C-106.27202128 398.7784145 -109.29316055 395.41407855 -112.28515625 391.93359375 C-114.5004738 389.43568444 -116.8689817 387.11975011 -119.25 384.78125 C-121.70634849 382.28103815 -123.96309368 379.62319484 -126.25 376.96875 C-127.93798286 375.06976929 -129.68769734 373.27994012 -131.5 371.5 C-134.59356643 368.46167583 -137.42105507 365.2523468 -140.25 361.96875 C-141.93798286 360.06976929 -143.68769734 358.27994012 -145.5 356.5 C-148.52821688 353.52573799 -151.29705937 350.38935881 -154.0625 347.171875 C-156.04559006 344.94889501 -158.10768457 342.84356825 -160.22265625 340.74609375 C-160.93301025 340.04025146 -161.64336426 339.33440918 -162.37524414 338.60717773 C-162.91141357 338.07680908 -163.44758301 337.54644043 -164 337 C-164.66418945 337.67204468 -164.66418945 337.67204468 -165.34179688 338.35766602 C-167.39176683 340.42870096 -169.44585433 342.49560697 -171.5 344.5625 C-172.19609375 345.26697266 -172.8921875 345.97144531 -173.609375 346.69726562 C-177.65089889 350.75750028 -181.78355364 354.63386779 -186.12451172 358.37182617 C-188.92212865 360.80053058 -191.61095165 363.34067207 -194.3125 365.875 C-199.18585549 370.41348524 -204.20303977 374.69348797 -209.3984375 378.86328125 C-211.94986729 380.95882494 -214.38326773 383.13963155 -216.8125 385.375 C-221.18700826 389.35683587 -225.74529075 393.01742083 -230.41650391 396.63891602 C-234.23277668 399.60016851 -237.99151282 402.61884605 -241.71850586 405.69165039 C-263.77781526 423.85057849 -287.34547873 440.55927021 -312 455 C-312.81645996 455.4842041 -313.63291992 455.9684082 -314.47412109 456.46728516 C-349.10032588 476.96921025 -393.24449048 498.95710646 -434.75 488.5 C-447.34103578 484.67146235 -463.4928003 477.96621611 -470.5625 466.25 C-473.97668035 458.53098356 -474.08087229 450.49629132 -471.5625 442.4375 C-469.05477783 436.15015341 -464.75974366 431.69838416 -460 427 C-459.45472656 426.4121875 -458.90945313 425.824375 -458.34765625 425.21875 C-457 424 -457 424 -455 424 C-454.56300781 425.16015625 -454.56300781 425.16015625 -454.1171875 426.34375 C-448.65884185 440.21275404 -441.86773333 447.09453487 -428.3359375 453.23828125 C-400.67121998 462.25938479 -369.89510373 445.60483279 -346.01708984 433.54882812 C-321.68170917 421.05621969 -298.66379493 404.63230756 -277 388 C-276.37818848 387.52304687 -275.75637695 387.04609375 -275.11572266 386.5546875 C-271.04070491 383.41482987 -267.00976319 380.22264513 -263 377 C-262.3596582 376.4858252 -261.71931641 375.97165039 -261.05957031 375.44189453 C-252.47764078 368.53777578 -243.98737525 361.53394933 -235.61523438 354.37695312 C-233.95165457 352.95878654 -232.28104124 351.54924683 -230.609375 350.140625 C-223.06464431 343.75988992 -215.77910037 337.14905498 -208.58984375 330.37109375 C-205.40849185 327.37245177 -202.17995404 324.43241859 -198.9375 321.5 C-193.77541931 316.7907334 -188.84492688 311.88153846 -183.93383789 306.91235352 C-181.00481874 303.96050554 -178.06816454 301.10730355 -174.875 298.4375 C-170.85690976 295.03233878 -167.38531265 291.15403994 -163.85424805 287.26074219 C-159.91962793 282.9415814 -155.84275353 278.79408291 -151.6875 274.6875 C-147.59668245 270.63609619 -143.61514664 266.57458476 -139.89453125 262.17578125 C-137.21918013 259.1032646 -134.4140224 256.15665089 -131.625 253.1875 C-126.89907435 248.13988635 -122.42498249 242.96675086 -118.1015625 237.56640625 C-116.01998573 235.02440637 -113.8496162 232.60470665 -111.625 230.1875 C-107.64316413 225.81299174 -103.98257917 221.25470925 -100.36108398 216.58349609 C-97.40022571 212.76773136 -94.38222214 209.00929552 -91.30932617 205.28320312 C-71.86162467 181.6520355 -53.64009615 155.91754264 -39 129 C-38.51595703 128.1126416 -38.03191406 127.2252832 -37.53320312 126.31103516 C-31.28867273 114.78489794 -25.49330171 103.32276723 -21 91 C-20.43732422 89.60007813 -20.43732422 89.60007813 -19.86328125 88.171875 C-14.08960087 73.49084386 -10.76607832 55.32791349 -16 40 C-21.28147834 28.20688532 -27.25813208 21.44474764 -39 16 C-42.4283844 14.65664599 -42.4283844 14.65664599 -45 14 C-41.17963576 5.42328227 -33.48202162 0.36107319 -25 -3 C-16.53628019 -5.60936816 -7.55880859 -4.54567527 0 0 Z " fill="#FE2795" transform="translate(491,22)"/>
<path d="M0 0 C2.41864809 1.0498282 3.51741836 2.38674276 5.17182922 4.43205261 C7.47030901 7.18630771 9.79092802 9.80213997 12.35932922 12.30705261 C15.45289565 15.34537679 18.28038429 18.55470581 21.10932922 21.83830261 C22.79731208 23.73728333 24.54702656 25.5271125 26.35932922 27.30705261 C29.45289565 30.34537679 32.28038429 33.55470581 35.10932922 36.83830261 C36.79731208 38.73728333 38.54702656 40.5271125 40.35932922 42.30705261 C43.45289565 45.34537679 46.28038429 48.55470581 49.10932922 51.83830261 C50.79731208 53.73728333 52.54702656 55.5271125 54.35932922 57.30705261 C57.45289565 60.34537679 60.28038429 63.55470581 63.10932922 66.83830261 C64.79731208 68.73728333 66.54702656 70.5271125 68.35932922 72.30705261 C71.45289565 75.34537679 74.28038429 78.55470581 77.10932922 81.83830261 C78.79731208 83.73728333 80.54702656 85.5271125 82.35932922 87.30705261 C84.79322654 89.69758428 87.07288481 92.15751524 89.29682922 94.74455261 C91.71550701 97.55281608 94.21832605 100.20675854 96.85932922 102.80705261 C100.1313505 106.02863811 103.15248977 109.39297407 106.14448547 112.87345886 C108.35980302 115.37136817 110.72831093 117.6873025 113.10932922 120.02580261 C115.56567771 122.52601447 117.8224229 125.18385777 120.10932922 127.83830261 C121.79731208 129.73728333 123.54702656 131.5271125 125.35932922 133.30705261 C128.44976895 136.34230591 131.27609944 139.54612446 134.09761047 142.83049011 C136.33769035 145.34375046 138.73180017 147.66565298 141.18354797 149.97111511 C142.85932922 151.80705261 142.85932922 151.80705261 144.73432922 154.68205261 C146.94867376 157.93844164 149.34116173 160.45147945 152.17182922 163.18205261 C156.16567189 167.07376292 159.94494297 171.06365588 163.51948547 175.34611511 C164.81571935 176.93396073 164.81571935 176.93396073 166.85932922 177.80705261 C168.65346849 177.1615146 168.65346849 177.1615146 170.61323547 176.07658386 C171.37611877 175.68720642 172.13900208 175.29782898 172.92500305 174.89665222 C173.74895569 174.47520935 174.57290833 174.05376648 175.42182922 173.61955261 C192.8441676 165.12905434 211.64243082 161.77718291 230.85932922 166.05705261 C234.71282688 166.49955952 235.83348601 165.82459018 239.12886047 163.58830261 C242.24483712 161.01888182 245.16048322 158.25007725 248.0785675 155.46037292 C250.78983392 152.94314011 253.67891062 150.68651234 256.60932922 148.43205261 C257.78260031 147.52201754 258.95577507 146.61185827 260.12886047 145.70158386 C260.73294739 145.23445984 261.3370343 144.76733582 261.95942688 144.28605652 C263.96187823 142.727222 265.94846323 141.14965122 267.93354797 139.56877136 C286.34421826 124.96951356 305.69557024 111.85738056 325.85932922 99.80705261 C326.54382141 99.39455261 327.2283136 98.98205261 327.93354797 98.55705261 C347.50364932 86.80705261 347.50364932 86.80705261 353.85932922 86.80705261 C351.95260247 93.12186361 349.53402183 98.87134847 346.42182922 104.68205261 C345.98862366 105.49649841 345.55541809 106.31094421 345.10908508 107.15007019 C331.31248845 132.67781666 313.91011472 156.80192562 295.47749329 179.1615448 C292.12898807 183.22363226 288.89920648 187.3509061 285.73432922 191.55705261 C281.5706672 197.02058961 277.10113049 202.06394045 272.41401672 207.07267761 C270.17000248 209.47452772 267.96757218 211.90157099 265.79682922 214.36955261 C265.26960266 214.96896667 264.7423761 215.56838074 264.19917297 216.18595886 C262.67092953 217.97859696 262.67092953 217.97859696 260.85932922 220.80705261 C260.19932922 220.80705261 259.53932922 220.80705261 258.85932922 220.80705261 C257.83549012 219.65784545 256.86548576 218.46046213 255.92182922 217.24455261 C247.57312938 207.50153382 234.51063541 201.40683069 221.85932922 199.80705261 C204.97281449 198.74397905 189.48001112 203.00020057 176.42182922 214.05705261 C166.1588539 224.01718604 159.5570865 237.72344657 158.65620422 252.03361511 C158.41566126 269.47298008 163.8355972 284.24156598 175.94136047 297.01408386 C177.74018552 298.86586034 177.74018552 298.86586034 179.85932922 299.80705261 C179.85932922 301.80705261 179.85932922 301.80705261 178.46089172 303.21720886 C177.8086261 303.7624823 177.15636047 304.30775574 176.48432922 304.86955261 C173.26083393 307.60498348 170.1041764 310.39127466 166.98432922 313.24455261 C162.1001356 317.6462651 157.0364097 321.75670516 151.85932922 325.80705261 C150.21670608 327.0958879 148.57459809 328.38537742 146.93257141 329.67497253 C145.75025742 330.60302016 144.56730522 331.53025525 143.38374329 332.45671082 C140.27785031 334.89127362 137.1873847 337.34233139 134.12104797 339.82658386 C125.9150912 346.4738255 117.57497495 352.83878984 108.85932922 358.80705261 C107.41952698 359.79415222 107.41952698 359.79415222 105.95063782 360.80119324 C56.1370149 394.80705261 56.1370149 394.80705261 45.85932922 394.80705261 C56.69784881 356.87223406 87.26295793 322.74444329 111.85932922 292.80705261 C112.75156223 291.7174593 113.6435078 290.62763053 114.53511047 289.53752136 C116.00781383 287.73701497 117.48155356 285.93735501 118.95698547 284.13908386 C119.58475891 283.36951355 120.21253235 282.59994324 120.85932922 281.80705261 C121.60569641 280.97431824 122.3520636 280.14158386 123.12104797 279.28361511 C125.02236069 277.01938969 125.02236069 277.01938969 125.03120422 274.68595886 C124.8223761 273.53933777 124.8223761 273.53933777 124.60932922 272.36955261 C121.98299622 251.88415521 123.94913886 233.42749808 133.27339172 214.97892761 C134.61889078 212.28792951 135.79231462 209.61720989 136.85932922 206.80705261 C132.68310712 202.51337426 128.37870994 198.47138547 123.83589172 194.56877136 C121.32263137 192.32869149 119.00072886 189.93458167 116.69526672 187.48283386 C114.78382391 185.64770489 114.78382391 185.64770489 111.98432922 183.93205261 C108.7279402 181.71770807 106.21490239 179.3252201 103.48432922 176.49455261 C99.69577608 172.61328164 95.81260947 168.9379016 91.68745422 165.41642761 C89.21898953 163.24333476 86.9439756 160.90232892 84.64057922 158.55705261 C82.77543248 156.72462774 80.84005177 155.01352127 78.85932922 153.30705261 C76.25285314 151.06147322 73.76998402 148.76153749 71.35932922 146.30705261 C68.96879756 143.87315529 66.5088666 141.59349702 63.92182922 139.36955261 C60.39298159 136.3302561 57.12927895 133.09688414 53.86323547 129.77970886 C51.27686771 127.23367432 48.54397642 124.88683705 45.79292297 122.52189636 C43.29501367 120.30657881 40.97907934 117.93807091 38.64057922 115.55705261 C36.77543248 113.72462774 34.84005177 112.01352127 32.85932922 110.30705261 C29.62976555 107.5246593 26.62610269 104.59685833 23.64057922 101.55705261 C21.77543248 99.72462774 19.84005177 98.01352127 17.85932922 96.30705261 C14.62976555 93.5246593 11.62610269 90.59685833 8.64057922 87.55705261 C6.77543248 85.72462774 4.84005177 84.01352127 2.85932922 82.30705261 C-0.37023445 79.5246593 -3.37389731 76.59685833 -6.35942078 73.55705261 C-8.22456752 71.72462774 -10.15994823 70.01352127 -12.14067078 68.30705261 C-15.37023445 65.5246593 -18.37389731 62.59685833 -21.35942078 59.55705261 C-23.85314592 57.10707703 -26.50306881 54.85551411 -29.15238953 52.57658386 C-31.75495832 50.26034877 -34.18130525 47.79575269 -36.59770203 45.28752136 C-38.2777445 43.58869756 -38.2777445 43.58869756 -41.14067078 41.80705261 C-40.56061393 38.16137549 -39.17052997 36.44971195 -36.6023407 33.84880066 C-35.85453842 33.08508652 -35.10673615 32.32137238 -34.33627319 31.53451538 C-33.52277908 30.72081985 -32.70928497 29.90712433 -31.87113953 29.06877136 C-31.03859146 28.22860977 -30.2060434 27.38844818 -29.3482666 26.52282715 C-27.58593122 24.74968578 -25.81959995 22.98050837 -24.04960632 21.2150116 C-21.33522825 18.50160755 -18.64286963 15.76758861 -15.95121765 13.03166199 C-14.23832698 11.31356603 -12.52417617 9.59672529 -10.80863953 7.88127136 C-10.00121811 7.05745468 -9.19379669 6.233638 -8.36190796 5.38485718 C-7.6046492 4.63690384 -6.84739044 3.8889505 -6.06718445 3.11833191 C-5.07243355 2.12049934 -5.07243355 2.12049934 -4.05758667 1.10250854 C-2.14067078 -0.19294739 -2.14067078 -0.19294739 0 0 Z " fill="#FEFEFD" transform="translate(41.14067077636719,0.1929473876953125)"/>
<path d="M0 0 C6.44177132 5.03979264 6.44177132 5.03979264 7.80859375 7.7734375 C7.28652344 7.556875 6.76445312 7.3403125 6.2265625 7.1171875 C-2.93504675 3.65149994 -11.34303439 3.66679494 -20.48046875 7.29296875 C-24.55907963 9.52033694 -27.71475499 12.49181632 -31 15.75 C-33.19140625 17.7734375 -33.19140625 17.7734375 -35.3515625 18.796875 C-37.33146325 19.61308587 -37.33146325 19.61308587 -38.03225708 21.54614258 C-39.48921531 24.34567498 -41.33945968 26.16095648 -43.57763672 28.38671875 C-44.48552948 29.29446045 -45.39342224 30.20220215 -46.3288269 31.13745117 C-47.32197889 32.12038466 -48.31523712 33.10321082 -49.30859375 34.0859375 C-50.32792127 35.10153084 -51.34680514 36.11756965 -52.36526489 37.1340332 C-55.04559106 39.80673421 -57.73186308 42.47338032 -60.41943359 45.13879395 C-63.14518438 47.84413999 -65.86534047 50.55509793 -68.5859375 53.265625 C-73.37867894 58.03924105 -78.17630284 62.80789345 -82.97750854 67.57299805 C-84.43780121 69.02441361 -85.88330146 70.49088619 -87.31253052 71.97290039 C-89.67346736 74.23539935 -92.00122191 75.23927061 -95.00390625 76.5234375 C-129.64106499 92.01191115 -160.04408931 115.82618581 -189.19140625 139.7734375 C-190.28099956 140.66567051 -191.37082833 141.55761608 -192.4609375 142.44921875 C-194.26144389 143.9219221 -196.06110386 145.39566184 -197.859375 146.87109375 C-198.62894531 147.49886719 -199.39851563 148.12664062 -200.19140625 148.7734375 C-201.44050781 149.89298828 -201.44050781 149.89298828 -202.71484375 151.03515625 C-205.19140625 152.7734375 -205.19140625 152.7734375 -207.3125 152.9453125 C-208.45912109 152.73648438 -208.45912109 152.73648438 -209.62890625 152.5234375 C-234.1980656 149.37354528 -253.22040971 154.07392181 -275.19140625 164.7734375 C-279.82057375 160.2524843 -284.25227493 155.65165422 -288.4453125 150.72265625 C-290.79505229 148.09956866 -293.3719158 145.7510885 -296.00390625 143.4140625 C-297.19140625 141.7734375 -297.19140625 141.7734375 -296.95922852 139.88500977 C-296.05687572 137.40346785 -294.97120684 136.1944521 -293.09375 134.34765625 C-292.14508057 133.40563354 -292.14508057 133.40563354 -291.17724609 132.44458008 C-290.50129395 131.78997803 -289.8253418 131.13537598 -289.12890625 130.4609375 C-288.44006348 129.78377686 -287.7512207 129.10661621 -287.04150391 128.40893555 C-283.2179677 124.67174309 -279.3529879 121.01539577 -275.265625 117.56640625 C-272.98016514 115.59083925 -270.77713472 113.54076481 -268.57006836 111.47851562 C-263.13649941 106.40185066 -257.59561768 101.56732549 -251.79296875 96.91015625 C-249.24153896 94.81461256 -246.80813852 92.63380595 -244.37890625 90.3984375 C-240.00439799 86.41660163 -235.4461155 82.75601667 -230.77490234 79.13452148 C-226.95862957 76.17326899 -223.19989343 73.15459145 -219.47290039 70.08178711 C-197.41359099 51.92285901 -173.84592752 35.21416729 -149.19140625 20.7734375 C-147.96671631 20.04713135 -147.96671631 20.04713135 -146.71728516 19.30615234 C-104.01166015 -5.97953895 -46.09435727 -32.15885391 0 0 Z " fill="#FB7A5B" transform="translate(482.19140625,14.2265625)"/>
<path d="M0 0 C3.21563712 1.37635985 5.34998741 3.9661132 7.71386719 6.46557617 C8.77691371 7.56262587 9.84201998 8.65768343 10.90917969 9.75073242 C11.42770508 10.2819873 11.94623047 10.81324219 12.48046875 11.3605957 C15.00168974 13.87600743 17.70065998 16.16665121 20.44042969 18.43823242 C21.96386719 19.84057617 21.96386719 19.84057617 23.96386719 22.84057617 C23.49335938 23.73518555 23.02285156 24.62979492 22.53808594 25.55151367 C18.92110943 32.53154175 15.90648703 39.19227415 13.96386719 46.84057617 C13.68671875 47.6681543 13.40957031 48.49573242 13.12402344 49.34838867 C10.99978465 56.22035009 10.70851429 62.76826152 10.71386719 69.90307617 C10.71394775 70.87083984 10.71402832 71.83860352 10.71411133 72.83569336 C10.76695786 77.69757391 11.13962465 82.08422599 12.21386719 86.84057617 C12.6563741 90.69407383 11.98140476 91.81473295 9.74511719 95.11010742 C7.1756964 98.22608407 4.40689183 101.14173017 1.6171875 104.05981445 C-0.90004532 106.77108087 -3.15667308 109.66015757 -5.41113281 112.59057617 C-6.32116789 113.76384725 -7.23132715 114.93702202 -8.14160156 116.11010742 C-8.60872559 116.71419434 -9.07584961 117.31828125 -9.55712891 117.94067383 C-11.11596343 119.94312518 -12.6935342 121.92971017 -14.27441406 123.91479492 C-28.87443391 142.3264262 -41.97981413 161.67942196 -54.03613281 181.84057617 C-54.64690674 182.8513623 -54.64690674 182.8513623 -55.27001953 183.88256836 C-59.64469043 191.14425908 -63.25436564 198.35076852 -66.02832031 206.39135742 C-67.99214385 209.76500759 -69.63373317 211.4199402 -72.54443359 213.94067383 C-77.88185457 218.65820373 -82.90979746 223.61872488 -87.91113281 228.68823242 C-89.73782846 230.52755153 -91.56465502 232.36674065 -93.39160156 234.20581055 C-96.23544523 237.07464361 -99.07781258 239.94490566 -101.91748047 242.81787109 C-104.68100018 245.61316618 -107.45234982 248.40063346 -110.22363281 251.18823242 C-111.50633057 252.49111961 -111.50633057 252.49111961 -112.81494141 253.82032776 C-113.99757568 255.00803017 -113.99757568 255.00803017 -115.20410156 256.21972656 C-115.89785889 256.92094131 -116.59161621 257.62215607 -117.30639648 258.34461975 C-119.03613281 259.84057617 -119.03613281 259.84057617 -121.03613281 259.84057617 C-121.2978125 260.43612305 -121.55949219 261.03166992 -121.82910156 261.64526367 C-123.10217589 263.96069336 -124.37882772 265.22725594 -126.34863281 266.96557617 C-132.75389383 273.15688275 -136.13295272 281.18192576 -136.28613281 290.02807617 C-136.25707612 295.43262047 -135.09622683 299.8742781 -133.03613281 304.84057617 C-137.15486346 301.88205134 -139.8736933 298.59802822 -142.53613281 294.34057617 C-142.92559082 293.72255127 -143.31504883 293.10452637 -143.71630859 292.46777344 C-152.17076155 278.72179855 -155.61630672 264.28492706 -155.47363281 248.21557617 C-155.46533447 246.99354492 -155.45703613 245.77151367 -155.44848633 244.51245117 C-154.61124869 199.22415211 -126.81593993 156.04851351 -102.03613281 119.84057617 C-101.52824219 119.09807617 -101.02035156 118.35557617 -100.49707031 117.59057617 C-88.61337631 100.30520307 -75.76880746 83.71251114 -62.42773438 67.53198242 C-60.42995163 65.10380016 -58.45431858 62.65771202 -56.47363281 60.21557617 C-48.65253054 50.67555032 -40.59011549 41.36032032 -32.25097656 32.27026367 C-30.39606464 30.23542202 -28.58184483 28.1773637 -26.78613281 26.09057617 C-23.29094933 22.07111517 -19.6666789 18.17487499 -16.03613281 14.27807617 C-15.45444336 13.65255859 -14.87275391 13.02704102 -14.2734375 12.38256836 C-13.12067243 11.14945317 -11.96217251 9.92167283 -10.79785156 8.69946289 C-9.57532777 7.40951055 -8.37069151 6.10246167 -7.18066406 4.7824707 C-6.57609375 4.13262207 -5.97152344 3.48277344 -5.34863281 2.81323242 C-4.80851563 2.21905518 -4.26839844 1.62487793 -3.71191406 1.01269531 C-2.03613281 -0.15942383 -2.03613281 -0.15942383 0 0 Z " fill="#FB7A5B" transform="translate(155.0361328125,185.159423828125)"/>
<path d="M0 0 C2.41864809 1.0498282 3.51741836 2.38674276 5.17182922 4.43205261 C7.47030901 7.18630771 9.79092802 9.80213997 12.35932922 12.30705261 C15.45289565 15.34537679 18.28038429 18.55470581 21.10932922 21.83830261 C22.79731208 23.73728333 24.54702656 25.5271125 26.35932922 27.30705261 C29.45289565 30.34537679 32.28038429 33.55470581 35.10932922 36.83830261 C36.79731208 38.73728333 38.54702656 40.5271125 40.35932922 42.30705261 C43.45289565 45.34537679 46.28038429 48.55470581 49.10932922 51.83830261 C50.79731208 53.73728333 52.54702656 55.5271125 54.35932922 57.30705261 C57.45289565 60.34537679 60.28038429 63.55470581 63.10932922 66.83830261 C64.79731208 68.73728333 66.54702656 70.5271125 68.35932922 72.30705261 C71.45289565 75.34537679 74.28038429 78.55470581 77.10932922 81.83830261 C78.79731208 83.73728333 80.54702656 85.5271125 82.35932922 87.30705261 C84.79322654 89.69758428 87.07288481 92.15751524 89.29682922 94.74455261 C91.71550701 97.55281608 94.21832605 100.20675854 96.85932922 102.80705261 C100.1313505 106.02863811 103.15248977 109.39297407 106.14448547 112.87345886 C108.35980302 115.37136817 110.72831093 117.6873025 113.10932922 120.02580261 C115.56567771 122.52601447 117.8224229 125.18385777 120.10932922 127.83830261 C121.79731208 129.73728333 123.54702656 131.5271125 125.35932922 133.30705261 C128.44976895 136.34230591 131.27609944 139.54612446 134.09761047 142.83049011 C136.33769035 145.34375046 138.73180017 147.66565298 141.18354797 149.97111511 C142.85932922 151.80705261 142.85932922 151.80705261 144.73432922 154.68205261 C146.94867376 157.93844164 149.34116173 160.45147945 152.17182922 163.18205261 C164.26306866 175.01827093 164.26306866 175.01827093 165.85932922 179.80705261 C164.84225891 180.49927917 164.84225891 180.49927917 163.80464172 181.20549011 C153.66393061 188.31241508 145.21839404 196.10521183 138.85932922 206.80705261 C135.78710531 205.42942503 133.60499348 203.83219201 131.17964172 201.50627136 C130.49772766 200.85851746 129.8158136 200.21076355 129.11323547 199.54338074 C128.05942688 198.52921082 128.05942688 198.52921082 126.98432922 197.49455261 C122.39002597 193.10055757 117.78918482 188.82266965 112.85932922 184.80705261 C108.25467834 180.89955448 103.87179444 176.86519902 99.64057922 172.55705261 C97.77543248 170.72462774 95.84005177 169.01352127 93.85932922 167.30705261 C90.62976555 164.5246593 87.62610269 161.59685833 84.64057922 158.55705261 C82.77543248 156.72462774 80.84005177 155.01352127 78.85932922 153.30705261 C76.25285314 151.06147322 73.76998402 148.76153749 71.35932922 146.30705261 C68.96879756 143.87315529 66.5088666 141.59349702 63.92182922 139.36955261 C60.39298159 136.3302561 57.12927895 133.09688414 53.86323547 129.77970886 C51.27686771 127.23367432 48.54397642 124.88683705 45.79292297 122.52189636 C43.29501367 120.30657881 40.97907934 117.93807091 38.64057922 115.55705261 C36.77543248 113.72462774 34.84005177 112.01352127 32.85932922 110.30705261 C29.62976555 107.5246593 26.62610269 104.59685833 23.64057922 101.55705261 C21.77543248 99.72462774 19.84005177 98.01352127 17.85932922 96.30705261 C14.62976555 93.5246593 11.62610269 90.59685833 8.64057922 87.55705261 C6.77543248 85.72462774 4.84005177 84.01352127 2.85932922 82.30705261 C-0.37023445 79.5246593 -3.37389731 76.59685833 -6.35942078 73.55705261 C-8.22456752 71.72462774 -10.15994823 70.01352127 -12.14067078 68.30705261 C-15.37023445 65.5246593 -18.37389731 62.59685833 -21.35942078 59.55705261 C-23.85314592 57.10707703 -26.50306881 54.85551411 -29.15238953 52.57658386 C-31.75495832 50.26034877 -34.18130525 47.79575269 -36.59770203 45.28752136 C-38.2777445 43.58869756 -38.2777445 43.58869756 -41.14067078 41.80705261 C-40.56061393 38.16137549 -39.17052997 36.44971195 -36.6023407 33.84880066 C-35.85453842 33.08508652 -35.10673615 32.32137238 -34.33627319 31.53451538 C-33.52277908 30.72081985 -32.70928497 29.90712433 -31.87113953 29.06877136 C-31.03859146 28.22860977 -30.2060434 27.38844818 -29.3482666 26.52282715 C-27.58593122 24.74968578 -25.81959995 22.98050837 -24.04960632 21.2150116 C-21.33522825 18.50160755 -18.64286963 15.76758861 -15.95121765 13.03166199 C-14.23832698 11.31356603 -12.52417617 9.59672529 -10.80863953 7.88127136 C-10.00121811 7.05745468 -9.19379669 6.233638 -8.36190796 5.38485718 C-7.6046492 4.63690384 -6.84739044 3.8889505 -6.06718445 3.11833191 C-5.07243355 2.12049934 -5.07243355 2.12049934 -4.05758667 1.10250854 C-2.14067078 -0.19294739 -2.14067078 -0.19294739 0 0 Z " fill="#FCD898" transform="translate(41.14067077636719,0.1929473876953125)"/>
<path d="M0 0 C3.24826819 1.31768969 5.36693237 3.92821748 7.73286438 6.42936707 C8.80251605 7.53153588 9.87412983 8.63180391 10.94770813 9.73014832 C11.46703918 10.26204773 11.98637024 10.79394714 12.5214386 11.34196472 C14.9578358 13.77998999 17.56763059 15.99716798 20.18989563 18.23014832 C22.64868572 20.3889553 24.9099422 22.72102811 27.20161438 25.05436707 C29.06676112 26.88679194 31.00214184 28.59789841 32.98286438 30.30436707 C36.21242805 33.08676038 39.21609091 36.01456135 42.20161438 39.05436707 C44.06676112 40.88679194 46.00214184 42.59789841 47.98286438 44.30436707 C50.58934047 46.54994646 53.07220959 48.84988219 55.48286438 51.30436707 C57.87339605 53.73826439 60.333327 56.01792265 62.92036438 58.24186707 C66.44921201 61.28116358 69.71291465 64.51453554 72.97895813 67.83171082 C75.56532589 70.37774536 78.29821718 72.72458263 81.04927063 75.08952332 C83.54717994 77.30484086 85.86311427 79.67334877 88.20161438 82.05436707 C90.06676112 83.88679194 92.00214184 85.59789841 93.98286438 87.30436707 C97.21242805 90.08676038 100.21609091 93.01456135 103.20161438 96.05436707 C105.06676112 97.88679194 107.00214184 99.59789841 108.98286438 101.30436707 C112.21242805 104.08676038 115.21609091 107.01456135 118.20161438 110.05436707 C120.06676112 111.88679194 122.00214184 113.59789841 123.98286438 115.30436707 C127.21242805 118.08676038 130.21609091 121.01456135 133.20161438 124.05436707 C135.69533952 126.50434264 138.34526241 128.75590557 140.99458313 131.03483582 C143.59715192 133.35107091 146.02349886 135.81566699 148.43989563 138.32389832 C150.1199381 140.02272212 150.1199381 140.02272212 152.98286438 141.80436707 C152.40280753 145.45004418 151.01272357 147.16170773 148.4445343 149.76261902 C147.69673203 150.52633316 146.94892975 151.2900473 146.1784668 152.0769043 C144.95822563 153.29744759 144.95822563 153.29744759 143.71333313 154.54264832 C142.88078506 155.38280991 142.048237 156.2229715 141.19046021 157.08859253 C139.42812483 158.8617339 137.66179355 160.63091131 135.89179993 162.39640808 C133.17742185 165.10981213 130.48506324 167.84383107 127.79341125 170.57975769 C126.08052059 172.29785365 124.36636978 174.01469439 122.65083313 175.73014832 C121.84341171 176.553965 121.0359903 177.37778168 120.20410156 178.2265625 C119.4468428 178.97451584 118.68958405 179.72246918 117.90937805 180.49308777 C117.24621078 181.15830948 116.58304352 181.82353119 115.89978027 182.50891113 C113.98286438 183.80436707 113.98286438 183.80436707 111.8421936 183.61141968 C109.42354552 182.56159147 108.32477525 181.22467692 106.67036438 179.17936707 C104.37188459 176.42511197 102.05126559 173.8092797 99.48286438 171.30436707 C96.38929795 168.26604289 93.56180931 165.05671386 90.73286438 161.77311707 C89.04488152 159.87413635 87.29516704 158.08430718 85.48286438 156.30436707 C82.38929795 153.26604289 79.56180931 150.05671386 76.73286438 146.77311707 C75.04488152 144.87413635 73.29516704 143.08430718 71.48286438 141.30436707 C68.38929795 138.26604289 65.56180931 135.05671386 62.73286438 131.77311707 C61.04488152 129.87413635 59.29516704 128.08430718 57.48286438 126.30436707 C54.38929795 123.26604289 51.56180931 120.05671386 48.73286438 116.77311707 C47.04488152 114.87413635 45.29516704 113.08430718 43.48286438 111.30436707 C41.04896706 108.9138354 38.76930879 106.45390444 36.54536438 103.86686707 C34.12668659 101.05860359 31.62386755 98.40466114 28.98286438 95.80436707 C25.7108431 92.58278157 22.68970383 89.21844561 19.69770813 85.73796082 C17.48239058 83.24005151 15.11388268 80.92411718 12.73286438 78.58561707 C10.27651589 76.08540521 8.0197707 73.42756191 5.73286438 70.77311707 C4.04488152 68.87413635 2.29516704 67.08430718 0.48286438 65.30436707 C-2.61070205 62.26604289 -5.43819069 59.05671386 -8.26713562 55.77311707 C-9.95511848 53.87413635 -11.70483296 52.08430718 -13.51713562 50.30436707 C-16.60340345 47.27321116 -19.43004351 44.07922963 -22.23588562 40.78874207 C-24.59973548 38.15533038 -27.18482409 35.79340231 -29.82963562 33.44499207 C-31.01713562 31.80436707 -31.01713562 31.80436707 -30.75512695 29.8918457 C-29.94565303 27.60217178 -29.08935289 26.48615782 -27.39677429 24.76408386 C-26.84917953 24.20057724 -26.30158478 23.63707062 -25.73739624 23.05648804 C-25.14263992 22.4615303 -24.54788361 21.86657257 -23.93510437 21.25358582 C-23.32451675 20.63538467 -22.71392914 20.01718353 -22.08483887 19.38024902 C-20.79328479 18.07790084 -19.49774335 16.77949657 -18.1985321 15.48478699 C-16.20834066 13.49557029 -14.24043509 11.48597984 -12.272995 9.47428894 C-11.01583389 8.21192282 -9.75741203 6.95081075 -8.49760437 5.69108582 C-7.90892075 5.08600693 -7.32023712 4.48092804 -6.7137146 3.85751343 C-2.54012679 -0.2463555 -2.54012679 -0.2463555 0 0 Z " fill="#FBC466" transform="translate(359.0171356201172,328.1956329345703)"/>
<path d="M0 0 C-1.51038118 3.54558092 -3.57271308 5.81520331 -6.29443359 8.52148438 C-7.62624161 9.8530658 -7.62624161 9.8530658 -8.98495483 11.21154785 C-9.95601214 12.17238659 -10.92717564 13.13311803 -11.8984375 14.09375 C-12.89534483 15.086923 -13.89180842 16.0805416 -14.8878479 17.07458496 C-17.50899052 19.68810317 -20.13607764 22.29556533 -22.76446533 24.90179443 C-25.4298928 27.5468173 -28.08972613 30.1974519 -30.75 32.84765625 C-35.4369062 37.5154386 -40.12869362 42.17825667 -44.82406616 46.83752441 C-46.2698245 48.27434066 -47.7005289 49.72647143 -49.11538696 51.19372559 C-51.47923743 53.45931673 -53.80588525 54.46415218 -56.8125 55.75 C-91.44965874 71.23847365 -121.85268306 95.05274831 -151 119 C-152.08959331 119.89223301 -153.17942208 120.78417858 -154.26953125 121.67578125 C-156.07003764 123.1484846 -157.86969761 124.62222434 -159.66796875 126.09765625 C-160.43753906 126.72542969 -161.20710938 127.35320312 -162 128 C-163.24910156 129.11955078 -163.24910156 129.11955078 -164.5234375 130.26171875 C-167 132 -167 132 -169.12109375 132.171875 C-169.88550781 132.03265625 -170.64992188 131.8934375 -171.4375 131.75 C-192.87922732 129.0010606 -211.57517376 131.76474188 -231 141 C-227.99917761 134.31370157 -221.87585164 129.83358164 -216.421875 125.140625 C-213.90394602 122.91510067 -211.45282201 120.62959197 -209.00317383 118.32958984 C-203.35317815 113.02526419 -197.62011934 107.9480577 -191.56640625 103.1015625 C-189.02440637 101.01998573 -186.60470665 98.8496162 -184.1875 96.625 C-179.81299174 92.64316413 -175.25470925 88.98257917 -170.58349609 85.36108398 C-166.76773136 82.40022571 -163.00929552 79.38222214 -159.28320312 76.30932617 C-47.37146218 -15.79048739 -47.37146218 -15.79048739 0 0 Z " fill="#FA9547" transform="translate(444,35)"/>
<path d="M0 0 C1 3 1 3 0.14453125 5.1015625 C-0.29503906 5.93429688 -0.73460937 6.76703125 -1.1875 7.625 C-8.56617631 23.39228318 -10.54009696 41.98221363 -6.75 59 C-6.30749309 62.85349766 -6.98246243 63.97415678 -9.21875 67.26953125 C-11.78817079 70.3855079 -14.55697536 73.301154 -17.34667969 76.21923828 C-19.8639125 78.9305047 -22.12054027 81.81958139 -24.375 84.75 C-25.28503507 85.92327108 -26.19519434 87.09644585 -27.10546875 88.26953125 C-27.57259277 88.87361816 -28.0397168 89.47770508 -28.52099609 90.10009766 C-30.07983062 92.102549 -31.65740139 94.089134 -33.23828125 96.07421875 C-47.8383011 114.48585003 -60.94368132 133.83884579 -73 154 C-73.61077393 155.01078613 -73.61077393 155.01078613 -74.23388672 156.04199219 C-78.60855762 163.30368291 -82.21823282 170.51019235 -84.9921875 178.55078125 C-86.95807563 181.92797817 -88.60805297 183.58930556 -91.52197266 186.11376953 C-96.77753336 190.75889173 -101.73255287 195.63629848 -106.65625 200.62890625 C-108.43737299 202.42265217 -110.21862661 204.21626838 -112 206.00976562 C-114.77141386 208.8061717 -117.5411828 211.60417325 -120.30859375 214.40454102 C-123.00351504 217.12946362 -125.70445849 219.84829797 -128.40625 222.56640625 C-129.23950806 223.41312393 -130.07276611 224.25984161 -130.93127441 225.13221741 C-132.08387756 226.28988869 -132.08387756 226.28988869 -133.25976562 227.47094727 C-134.27375427 228.49612206 -134.27375427 228.49612206 -135.30822754 229.54200745 C-137 231 -137 231 -139 231 C-146.95406078 204.74513272 -128.25582324 172.69457225 -116.70068359 150.50488281 C-104.38967167 127.51841558 -88.85513595 105.65151889 -73 85 C-72.52304688 84.37818848 -72.04609375 83.75637695 -71.5546875 83.11572266 C-68.41482987 79.04070491 -65.22264513 75.00976319 -62 71 C-61.4858252 70.3596582 -60.97165039 69.71931641 -60.44189453 69.05957031 C-53.53777578 60.47764078 -46.53394933 51.98737525 -39.37695312 43.61523438 C-37.95878654 41.95165457 -36.54924683 40.28104124 -35.140625 38.609375 C-28.23311874 30.44177771 -21.03250411 22.59437299 -13.69726562 14.81054688 C-10.09910942 10.97223755 -6.55968047 7.07994212 -3.01171875 3.1953125 C-1 1 -1 1 0 0 Z " fill="#FA9547" transform="translate(174,213)"/>
<path d="M0 0 C8.80083369 7.1725206 8.80083369 7.1725206 10.32617188 11.74853516 C-6.09794841 29.32350696 -6.09794841 29.32350696 -13.36523438 36.37744141 C-15.30127354 38.36589449 -17.11288781 40.39054746 -18.92382812 42.49072266 C-22.80081279 46.95624784 -26.91977207 51.14211576 -31.11132812 55.31103516 C-31.82353516 56.02710938 -32.53574219 56.74318359 -33.26953125 57.48095703 C-37.31253959 61.51662113 -41.4612395 65.35131736 -45.78735352 69.08032227 C-48.71783036 71.67174821 -51.44121049 74.45169023 -54.17382812 77.24853516 C-58.83219666 81.96653081 -63.56959403 86.50785728 -68.67382812 90.74853516 C-80.19276076 84.28281304 -86.45693999 72.14663396 -90.61914062 59.98681641 C-94.53981099 43.28255181 -90.44656477 27.12194547 -81.67382812 12.74853516 C-72.51989653 0.42893386 -59.79504054 -7.73483993 -44.70117188 -10.86865234 C-28.76703486 -12.88354967 -13.04246081 -9.75140813 0 0 Z " fill="#F9B234" transform="translate(290.673828125,210.25146484375)"/>
<path d="M0 0 C-1.90672675 6.314811 -4.32530739 12.06429585 -7.4375 17.875 C-7.87070557 18.6894458 -8.30391113 19.5038916 -8.75024414 20.34301758 C-22.57708526 45.9267252 -40.02464935 70.06365956 -58.49829102 92.46875 C-62.9008367 97.82062244 -67.01984652 103.32437329 -71 109 C-71.639375 108.34 -72.27875 107.68 -72.9375 107 C-73.95501171 105.9966204 -74.97633826 104.99710448 -76 104 C-76.91265625 103.09314453 -76.91265625 103.09314453 -77.84375 102.16796875 C-89.00981468 91.60603816 -103.99639071 84.17384043 -119 81 C-110.64980923 72.37146954 -101.44856767 64.85241007 -91.96435547 57.52734375 C-89.934622 55.94916669 -87.92133133 54.35174546 -85.91015625 52.75 C-67.50603622 38.15341193 -48.15781701 25.04677689 -28 13 C-27.31550781 12.5875 -26.63101563 12.175 -25.92578125 11.75 C-6.3556799 0 -6.3556799 0 0 0 Z " fill="#FBD898" transform="translate(395,87)"/>
<path d="M0 0 C0.66 0 1.32 0 2 0 C2.4021875 1.36318359 2.4021875 1.36318359 2.8125 2.75390625 C8.09213496 19.68694601 15.83675361 34.78742994 30 46 C29.360625 46.495 28.72125 46.99 28.0625 47.5 C25.70599006 49.42368158 23.48675454 51.3831604 21.25 53.4375 C14.91061994 59.09691355 8.11395487 64.15780115 1.32226562 69.25585938 C-0.20759328 70.4048619 -1.73500554 71.55713039 -3.25976562 72.71289062 C-63.03875 118 -63.03875 118 -79 118 C-68.16148041 80.06518144 -37.59637129 45.93739068 -13 16 C-12.10776699 14.91040669 -11.21582142 13.82057792 -10.32421875 12.73046875 C-8.8515154 10.92996236 -7.37777566 9.13030239 -5.90234375 7.33203125 C-4.52818797 5.64749121 -3.19137242 3.93225419 -1.87890625 2.19921875 C-1.25886719 1.47347656 -0.63882813 0.74773437 0 0 Z " fill="#FBD898" transform="translate(166,277)"/>
</svg>
